<svg width="243" height="53" viewBox="0 0 243 53" fill="none" xmlns="http://www.w3.org/2000/svg">
<path d="M9.53119 9.84H0.951189V0.719999H32.0912V9.84H23.5112V42H9.53119V9.84ZM47.476 42.48C44.156 42.48 41.196 41.82 38.596 40.5C36.036 39.14 34.036 37.3 32.596 34.98C31.156 32.62 30.436 29.96 30.436 27C30.436 23.96 31.176 21.26 32.656 18.9C34.136 16.54 36.136 14.72 38.656 13.44C41.176 12.16 43.976 11.52 47.056 11.52C50.016 11.52 52.536 12.18 54.616 13.5C56.736 14.78 58.316 16.54 59.356 18.78C60.396 20.98 60.916 23.46 60.916 26.22C60.916 26.94 60.876 27.46 60.796 27.78L42.796 30.12C43.276 31.52 44.056 32.54 45.136 33.18C46.216 33.78 47.636 34.08 49.396 34.08C52.116 34.08 55.056 33.38 58.216 31.98L59.716 40.02C55.996 41.66 51.916 42.48 47.476 42.48ZM51.616 22.56C50.976 20.04 49.456 18.78 47.056 18.78C45.616 18.78 44.476 19.32 43.636 20.4C42.796 21.48 42.356 22.88 42.316 24.6L51.616 22.56ZM74.2088 42.48C70.0088 42.48 66.3288 41.86 63.1688 40.62L64.5488 33.48C67.4288 34.52 70.2288 35.04 72.9488 35.04C74.9488 35.04 75.9488 34.48 75.9488 33.36C75.9488 32.8 75.6488 32.34 75.0488 31.98C74.4888 31.62 73.4088 31.3 71.8088 31.02C68.4888 30.38 66.0888 29.3 64.6088 27.78C63.1688 26.26 62.4488 24.1 62.4488 21.3C62.6088 18.14 63.8688 15.72 66.2288 14.04C68.5888 12.36 71.8088 11.52 75.8888 11.52C77.9688 11.52 79.7488 11.66 81.2288 11.94C82.7488 12.18 84.1288 12.6 85.3688 13.2L84.1088 20.34C82.9488 19.9 81.6688 19.56 80.2688 19.32C78.9088 19.08 77.7688 18.96 76.8488 18.96C75.4888 18.96 74.5488 19.1 74.0288 19.38C73.5088 19.66 73.2488 20.04 73.2488 20.52C73.2488 21.4 74.2488 22.02 76.2488 22.38C79.8888 23.02 82.6088 24.14 84.4088 25.74C86.2088 27.34 87.1088 29.52 87.1088 32.28C87.1088 35.44 85.9888 37.94 83.7488 39.78C81.5488 41.58 78.3688 42.48 74.2088 42.48ZM103.237 42.48C99.7166 42.48 96.9766 41.48 95.0166 39.48C93.0566 37.44 92.0766 34.64 92.0766 31.08V19.38H88.2366V11.94H92.9766L98.5566 0.599997H104.617V11.94H111.577V19.38H104.617V29.58C104.617 30.58 104.937 31.36 105.577 31.92C106.217 32.48 107.117 32.76 108.277 32.76C109.357 32.76 110.337 32.52 111.217 32.04L111.697 40.44C110.697 41.04 109.397 41.54 107.797 41.94C106.237 42.3 104.717 42.48 103.237 42.48ZM137.728 42.48C135.128 42.48 132.688 41.8 130.408 40.44C128.168 39.04 126.368 37.16 125.008 34.8C123.648 32.4 122.968 29.74 122.968 26.82C122.968 23.94 123.648 21.34 125.008 19.02C126.368 16.66 128.188 14.82 130.468 13.5C132.748 12.18 135.168 11.52 137.728 11.52C139.808 11.52 141.728 12.1 143.488 13.26C145.288 14.42 146.648 16.16 147.568 18.48V11.52H160.168V42H147.568V36.42C145.568 40.46 142.288 42.48 137.728 42.48ZM141.628 33C143.228 33 144.588 32.44 145.708 31.32C146.868 30.16 147.488 28.8 147.568 27.24V26.76C147.488 25.16 146.848 23.8 145.648 22.68C144.488 21.56 143.148 21 141.628 21C139.948 21 138.508 21.6 137.308 22.8C136.148 23.96 135.568 25.36 135.568 27C135.568 28.68 136.168 30.1 137.368 31.26C138.568 32.42 139.988 33 141.628 33ZM164.798 12.36H177.458V17.58C179.378 13.54 182.638 11.52 187.238 11.52C189.918 11.52 192.378 12.2 194.618 13.56C196.898 14.88 198.678 16.72 199.958 19.08C201.278 21.44 201.938 24.08 201.938 27C201.938 29.92 201.258 32.56 199.898 34.92C198.578 37.28 196.778 39.14 194.498 40.5C192.258 41.82 189.858 42.48 187.298 42.48C182.738 42.48 179.458 40.46 177.458 36.42V49.8L164.798 52.2V12.36ZM183.458 33C185.098 33 186.498 32.4 187.658 31.2C188.818 30 189.398 28.6 189.398 27C189.398 25.32 188.798 23.9 187.598 22.74C186.438 21.58 185.058 21 183.458 21C181.818 21 180.418 21.58 179.258 22.74C178.098 23.86 177.518 25.2 177.518 26.76V27C177.518 28.68 178.098 30.1 179.258 31.26C180.458 32.42 181.858 33 183.458 33ZM205.07 12.36H217.73V17.58C219.65 13.54 222.91 11.52 227.51 11.52C230.19 11.52 232.65 12.2 234.89 13.56C237.17 14.88 238.95 16.72 240.23 19.08C241.55 21.44 242.21 24.08 242.21 27C242.21 29.92 241.53 32.56 240.17 34.92C238.85 37.28 237.05 39.14 234.77 40.5C232.53 41.82 230.13 42.48 227.57 42.48C223.01 42.48 219.73 40.46 217.73 36.42V49.8L205.07 52.2V12.36ZM223.73 33C225.37 33 226.77 32.4 227.93 31.2C229.09 30 229.67 28.6 229.67 27C229.67 25.32 229.07 23.9 227.87 22.74C226.71 21.58 225.33 21 223.73 21C222.09 21 220.69 21.58 219.53 22.74C218.37 23.86 217.79 25.2 217.79 26.76V27C217.79 28.68 218.37 30.1 219.53 31.26C220.73 32.42 222.13 33 223.73 33Z" fill="white"/>
</svg>
